<?xml version="1.0" encoding="UTF-8"?>
<svg xmlns="http://www.w3.org/2000/svg" width="1024" height="1024" viewBox="0 0 100 100">
  <defs>
    <linearGradient id="bg" x1="0" y1="0" x2="1" y2="1">
      <stop offset="0%" stop-color="#FFF8F1"/>
      <stop offset="100%" stop-color="#FFE9D4"/>
    </linearGradient>
    <radialGradient id="body" cx="40%" cy="35%" r="70%">
      <stop offset="0%" stop-color="#FFF8E1"/>
      <stop offset="60%" stop-color="#FFE29A"/>
      <stop offset="100%" stop-color="#F4C94F"/>
    </radialGradient>
  </defs>
  <rect width="100" height="100" fill="url(#bg)"/>
  <ellipse cx="50" cy="62" rx="38" ry="22" fill="#FFC48A" opacity="0.25"/>
  <ellipse cx="50" cy="58" rx="28" ry="32" fill="url(#body)" stroke="#C4882E" stroke-opacity="0.5" stroke-width="1.4"/>
  <ellipse cx="56" cy="64" rx="14" ry="18" fill="#E8A93C" opacity="0.18"/>
  <ellipse cx="40" cy="38" rx="8" ry="4" fill="#FFF8E1" opacity="0.8" transform="rotate(-24 40 38)"/>
  <ellipse cx="33" cy="66" rx="6" ry="3.5" fill="#FF9B85" opacity="0.65"/>
  <ellipse cx="67" cy="66" rx="6" ry="3.5" fill="#FF9B85" opacity="0.65"/>
  <path d="M 38 58 Q 42 54 46 58" stroke="#3A2418" stroke-width="2.5" stroke-linecap="round" fill="none"/>
  <path d="M 54 58 Q 58 54 62 58" stroke="#3A2418" stroke-width="2.5" stroke-linecap="round" fill="none"/>
  <path d="M 44 72 Q 50 78 56 72" stroke="#3A2418" stroke-width="2" stroke-linecap="round" fill="none"/>
  <g transform="translate(50 22)">
    <ellipse cx="0" cy="7" rx="16" ry="3.5" fill="#FFFFFF" stroke="#E8E0D0" stroke-width="1"/>
    <path d="M -13 5 Q -15 -12 -5 -9 Q 0 -16 5 -13 Q 10 -16 13 -9 Q 15 -12 13 5 Z" fill="#FFFFFF" stroke="#E8E0D0" stroke-width="1"/>
  </g>
</svg>
