<?xml version="1.0" encoding="UTF-8"?>
<svg xmlns="http://www.w3.org/2000/svg" width="1024" height="1024" viewBox="0 0 100 100">
  <defs>
    <linearGradient id="bg" x1="0" y1="0" x2="0" y2="1">
      <stop offset="0%" stop-color="#FF7A5A"/>
      <stop offset="100%" stop-color="#C44A1C"/>
    </linearGradient>
  </defs>
  <rect width="100" height="100" fill="url(#bg)"/>
  <ellipse cx="30" cy="20" rx="34" ry="24" fill="#FFFFFF" opacity="0.10"/>
  <path d="M 32 38 Q 26 28 34 20 Q 38 28 34 34" stroke="#FFFFFF" stroke-width="3.6" stroke-linecap="round" fill="none" opacity="0.65"/>
  <path d="M 50 32 Q 44 20 54 10 Q 58 20 52 28" stroke="#FFFFFF" stroke-width="3.6" stroke-linecap="round" fill="none" opacity="0.92"/>
  <path d="M 68 38 Q 62 28 70 20 Q 74 28 70 34" stroke="#FFFFFF" stroke-width="3.6" stroke-linecap="round" fill="none" opacity="0.65"/>
  <ellipse cx="50" cy="50" rx="33" ry="5.5" fill="#1F1612"/>
  <rect x="45" y="43" width="10" height="7" rx="2.5" fill="#1F1612"/>
  <path d="M 20 54 Q 20 84 32 88 L 68 88 Q 80 84 80 54 Z" fill="#FFFFFF"/>
  <path d="M 26 60 Q 26 78 32 84" stroke="#FFE9D4" stroke-width="2.2" stroke-linecap="round" fill="none" opacity="0.8"/>
  <rect x="10" y="62" width="12" height="8" rx="3" fill="#1F1612"/>
  <rect x="78" y="62" width="12" height="8" rx="3" fill="#1F1612"/>
</svg>
