<?xml version="1.0" encoding="UTF-8"?>
<svg xmlns="http://www.w3.org/2000/svg" width="1024" height="1024" viewBox="0 0 100 100">
  <defs>
    <linearGradient id="bg" x1="0" y1="0" x2="1" y2="1">
      <stop offset="0%" stop-color="#FFF8F1"/>
      <stop offset="100%" stop-color="#FFE9D4"/>
    </linearGradient>
  </defs>
  <rect width="100" height="100" fill="url(#bg)"/>
  <circle cx="70" cy="30" r="28" fill="#FFD4C2" opacity="0.4"/>
  <g transform="translate(50 54) rotate(35) translate(-50 -54)">
    <path d="M 50 20 L 42 86 Q 50 90 58 86 L 50 20 Z" fill="#FF8847" stroke="#C44A1C" stroke-width="1.6" stroke-linejoin="round"/>
    <path d="M 44 36 L 56 36" stroke="#C44A1C" stroke-width="1.2" stroke-linecap="round" opacity="0.45"/>
    <path d="M 43 52 L 57 52" stroke="#C44A1C" stroke-width="1.2" stroke-linecap="round" opacity="0.45"/>
    <path d="M 43 68 L 57 68" stroke="#C44A1C" stroke-width="1.2" stroke-linecap="round" opacity="0.45"/>
    <path d="M 50 20 Q 44 8 40 14" stroke="#3A8B3E" stroke-width="4" stroke-linecap="round" fill="none"/>
    <path d="M 50 20 Q 50 4 54 10" stroke="#2E5D2A" stroke-width="4" stroke-linecap="round" fill="none"/>
    <path d="M 50 20 Q 58 8 62 14" stroke="#3A8B3E" stroke-width="4" stroke-linecap="round" fill="none"/>
    <path d="M 48 28 L 46 78" stroke="#FFB88A" stroke-width="1.5" stroke-linecap="round" opacity="0.7"/>
  </g>
</svg>
