<?xml version="1.0" encoding="UTF-8"?>
<svg xmlns="http://www.w3.org/2000/svg" width="512" height="512" viewBox="0 0 100 100">
  <ellipse cx="50" cy="97" rx="22" ry="2.5" fill="rgba(31,22,18,0.18)"/>
  <rect x="41" y="80" width="7" height="14" rx="3" fill="#3A4A6A"/>
  <rect x="52" y="80" width="7" height="14" rx="3" fill="#3A4A6A"/>
  <line x1="44.5" y1="80" x2="44.5" y2="94" stroke="#5A6A8A" stroke-width="0.5"/>
  <line x1="55.5" y1="80" x2="55.5" y2="94" stroke="#5A6A8A" stroke-width="0.5"/>
  <ellipse cx="44.5" cy="95" rx="7.5" ry="3.2" fill="#2E3A56"/>
  <ellipse cx="55.5" cy="95" rx="7.5" ry="3.2" fill="#2E3A56"/>
  <rect x="36" y="58" width="28" height="26" rx="7" fill="#BBDCE8" stroke="#A4C8D6" stroke-width="0.7"/>
  <rect x="55" y="63" width="5" height="5" rx="0.8" fill="none" stroke="#A4C8D6" stroke-width="0.6"/>
  <rect x="46" y="51" width="8" height="8" fill="#EBC9A5"/>
  <ellipse cx="50" cy="32" rx="22" ry="24" fill="#EBC9A5" stroke="#B8956E" stroke-width="0.8" stroke-opacity="0.5"/>
  <ellipse cx="28.5" cy="34" rx="2.8" ry="4" fill="#EBC9A5" stroke="#B8956E" stroke-width="0.6" stroke-opacity="0.5"/>
  <ellipse cx="71.5" cy="34" rx="2.8" ry="4" fill="#EBC9A5" stroke="#B8956E" stroke-width="0.6" stroke-opacity="0.5"/>
  <path d="M 28 27 Q 30 32 34 32" stroke="#C47840" stroke-width="2.2" stroke-linecap="round" fill="none"/>
  <path d="M 72 27 Q 70 32 66 32" stroke="#C47840" stroke-width="2.2" stroke-linecap="round" fill="none"/>
  <path d="M 28 24 Q 26 10 40 6 Q 50 4 60 6 Q 74 10 72 24 Q 74 26 72 26 L 28 26 Q 26 26 28 24 Z" fill="#FFD66E" stroke="#D9B048" stroke-width="0.8"/>
  <path d="M 30 15 L 70 15" stroke="#D9B048" stroke-width="0.5" opacity="0.55"/>
  <path d="M 29 21 L 71 21" stroke="#D9B048" stroke-width="0.5" opacity="0.55"/>
  <rect x="28" y="23" width="44" height="4" rx="1" fill="#E8BD55" opacity="0.5"/>
  <circle cx="50" cy="5" r="3.2" fill="#FFE9A8" stroke="#D9B048" stroke-width="0.6"/>
  <ellipse cx="36" cy="40" rx="4" ry="2.5" fill="#FF9B85" opacity="0.6"/>
  <ellipse cx="64" cy="40" rx="4" ry="2.5" fill="#FF9B85" opacity="0.6"/>
  <path d="M 40 35 Q 43 38 46 35" stroke="#1F1612" stroke-width="1.8" stroke-linecap="round" fill="none"/>
  <path d="M 54 35 Q 57 38 60 35" stroke="#1F1612" stroke-width="1.8" stroke-linecap="round" fill="none"/>
  <path d="M 47 43 Q 50 45 53 43" stroke="#3A2418" stroke-width="1.6" stroke-linecap="round" fill="none"/>
  <path d="M 36 64 Q 28 70 28 80" stroke="#BBDCE8" stroke-width="6" stroke-linecap="round" fill="none"/>
  <circle cx="28" cy="81" r="4" fill="#EBC9A5" stroke="#B8956E" stroke-width="0.6"/>
  <path d="M 64 64 Q 72 70 72 80" stroke="#BBDCE8" stroke-width="6" stroke-linecap="round" fill="none"/>
  <circle cx="72" cy="81" r="4" fill="#EBC9A5" stroke="#B8956E" stroke-width="0.6"/>
</svg>
